<mxfile host="app.diagrams.net" modified="2021-01-31T16:21:17.809Z" agent="5.0 (Windows NT 10.0; Win64; x64) AppleWebKit/537.36 (KHTML, like Gecko) Chrome/88.0.4324.96 Safari/537.36 Edg/88.0.705.56" etag="CWF3CqOh-DVi-2ULxLWf" version="14.2.9" type="github">
  <diagram id="nsCMqzc3oeU64JGv1fq4" name="Page-1">
    <mxGraphModel dx="1826" dy="794" grid="1" gridSize="10" guides="1" tooltips="1" connect="1" arrows="1" fold="1" page="1" pageScale="1" pageWidth="827" pageHeight="1169" math="0" shadow="0">
      <root>
        <mxCell id="0" />
        <mxCell id="1" parent="0" />
        <mxCell id="uQAS-4vIIWoBUJb4hJAs-1" value="" style="shape=image;html=1;verticalAlign=top;verticalLabelPosition=bottom;labelBackgroundColor=#ffffff;imageAspect=0;aspect=fixed;image=https://cdn4.iconfinder.com/data/icons/STROKE/education_icons/png/128/school_events.png" vertex="1" parent="1">
          <mxGeometry x="190" y="410" width="128" height="128" as="geometry" />
        </mxCell>
        <mxCell id="uQAS-4vIIWoBUJb4hJAs-31" value="" style="edgeStyle=orthogonalEdgeStyle;rounded=0;orthogonalLoop=1;jettySize=auto;html=1;entryX=0;entryY=0.5;entryDx=0;entryDy=0;" edge="1" parent="1" source="uQAS-4vIIWoBUJb4hJAs-2" target="uQAS-4vIIWoBUJb4hJAs-3">
          <mxGeometry relative="1" as="geometry" />
        </mxCell>
        <mxCell id="uQAS-4vIIWoBUJb4hJAs-2" value="" style="rounded=1;whiteSpace=wrap;html=1;" vertex="1" parent="1">
          <mxGeometry x="60" y="190" width="140" height="130" as="geometry" />
        </mxCell>
        <mxCell id="uQAS-4vIIWoBUJb4hJAs-22" value="" style="edgeStyle=orthogonalEdgeStyle;rounded=0;orthogonalLoop=1;jettySize=auto;html=1;entryX=0;entryY=0.5;entryDx=0;entryDy=0;" edge="1" parent="1" source="uQAS-4vIIWoBUJb4hJAs-3" target="uQAS-4vIIWoBUJb4hJAs-4">
          <mxGeometry relative="1" as="geometry" />
        </mxCell>
        <mxCell id="uQAS-4vIIWoBUJb4hJAs-3" value="" style="rounded=1;whiteSpace=wrap;html=1;" vertex="1" parent="1">
          <mxGeometry x="275" y="190" width="140" height="130" as="geometry" />
        </mxCell>
        <mxCell id="uQAS-4vIIWoBUJb4hJAs-52" value="" style="edgeStyle=orthogonalEdgeStyle;rounded=0;orthogonalLoop=1;jettySize=auto;html=1;entryX=1;entryY=0.5;entryDx=0;entryDy=0;" edge="1" parent="1" source="uQAS-4vIIWoBUJb4hJAs-4" target="uQAS-4vIIWoBUJb4hJAs-3">
          <mxGeometry relative="1" as="geometry" />
        </mxCell>
        <mxCell id="uQAS-4vIIWoBUJb4hJAs-54" value="" style="edgeStyle=orthogonalEdgeStyle;rounded=0;orthogonalLoop=1;jettySize=auto;html=1;" edge="1" parent="1" source="uQAS-4vIIWoBUJb4hJAs-4" target="uQAS-4vIIWoBUJb4hJAs-16">
          <mxGeometry relative="1" as="geometry" />
        </mxCell>
        <mxCell id="uQAS-4vIIWoBUJb4hJAs-56" value="" style="edgeStyle=orthogonalEdgeStyle;rounded=0;orthogonalLoop=1;jettySize=auto;html=1;" edge="1" parent="1" source="uQAS-4vIIWoBUJb4hJAs-4" target="uQAS-4vIIWoBUJb4hJAs-16">
          <mxGeometry relative="1" as="geometry" />
        </mxCell>
        <mxCell id="uQAS-4vIIWoBUJb4hJAs-58" style="edgeStyle=orthogonalEdgeStyle;rounded=0;orthogonalLoop=1;jettySize=auto;html=1;entryX=0.5;entryY=0;entryDx=0;entryDy=0;" edge="1" parent="1" source="uQAS-4vIIWoBUJb4hJAs-4" target="uQAS-4vIIWoBUJb4hJAs-5">
          <mxGeometry relative="1" as="geometry" />
        </mxCell>
        <mxCell id="uQAS-4vIIWoBUJb4hJAs-4" value="" style="rounded=1;whiteSpace=wrap;html=1;" vertex="1" parent="1">
          <mxGeometry x="490" y="190" width="120" height="130" as="geometry" />
        </mxCell>
        <mxCell id="uQAS-4vIIWoBUJb4hJAs-55" value="" style="edgeStyle=orthogonalEdgeStyle;rounded=0;orthogonalLoop=1;jettySize=auto;html=1;" edge="1" parent="1" source="uQAS-4vIIWoBUJb4hJAs-5" target="uQAS-4vIIWoBUJb4hJAs-4">
          <mxGeometry relative="1" as="geometry" />
        </mxCell>
        <mxCell id="uQAS-4vIIWoBUJb4hJAs-5" value="" style="rounded=1;whiteSpace=wrap;html=1;" vertex="1" parent="1">
          <mxGeometry x="490" y="408" width="120" height="130" as="geometry" />
        </mxCell>
        <mxCell id="uQAS-4vIIWoBUJb4hJAs-7" value="" style="shape=image;html=1;verticalAlign=top;verticalLabelPosition=bottom;labelBackgroundColor=#ffffff;imageAspect=0;aspect=fixed;image=https://cdn0.iconfinder.com/data/icons/fatcow/32/ceo.png" vertex="1" parent="1">
          <mxGeometry x="10" y="440" width="102" height="102" as="geometry" />
        </mxCell>
        <mxCell id="uQAS-4vIIWoBUJb4hJAs-9" value="" style="points=[];aspect=fixed;html=1;align=center;shadow=0;dashed=0;image;image=img/lib/allied_telesis/computer_and_terminals/Laptop.svg;" vertex="1" parent="1">
          <mxGeometry x="107.95" y="220.94" width="82.05" height="83.22" as="geometry" />
        </mxCell>
        <mxCell id="uQAS-4vIIWoBUJb4hJAs-11" value="" style="dashed=0;outlineConnect=0;html=1;align=center;labelPosition=center;verticalLabelPosition=bottom;verticalAlign=top;shape=mxgraph.weblogos.java" vertex="1" parent="1">
          <mxGeometry x="286" y="239.11" width="24.4" height="35" as="geometry" />
        </mxCell>
        <mxCell id="uQAS-4vIIWoBUJb4hJAs-12" value="" style="shape=image;html=1;verticalAlign=top;verticalLabelPosition=bottom;labelBackgroundColor=#ffffff;imageAspect=0;aspect=fixed;image=https://cdn3.iconfinder.com/data/icons/logos-brands-3/24/logo_brand_brands_logos_chrome-128.png" vertex="1" parent="1">
          <mxGeometry x="286" y="284.82" width="24.4" height="24.4" as="geometry" />
        </mxCell>
        <mxCell id="uQAS-4vIIWoBUJb4hJAs-13" value="" style="shape=image;html=1;verticalAlign=top;verticalLabelPosition=bottom;labelBackgroundColor=#ffffff;imageAspect=0;aspect=fixed;image=https://cdn1.iconfinder.com/data/icons/social-media-glossy/512/70-windows_social-128.png" vertex="1" parent="1">
          <mxGeometry x="288.2" y="205" width="20" height="20" as="geometry" />
        </mxCell>
        <mxCell id="uQAS-4vIIWoBUJb4hJAs-14" value="" style="shape=image;html=1;verticalAlign=top;verticalLabelPosition=bottom;labelBackgroundColor=#ffffff;imageAspect=0;aspect=fixed;image=https://cdn1.iconfinder.com/data/icons/computer-techologies-outline-free/128/ic_windows_10_window-128.png" vertex="1" parent="1">
          <mxGeometry x="500" y="240.91" width="28" height="28" as="geometry" />
        </mxCell>
        <mxCell id="uQAS-4vIIWoBUJb4hJAs-15" value="" style="verticalLabelPosition=bottom;aspect=fixed;html=1;verticalAlign=top;strokeColor=none;align=center;outlineConnect=0;shape=mxgraph.citrix.tablet_2;" vertex="1" parent="1">
          <mxGeometry x="80" y="235.28" width="52" height="54.54" as="geometry" />
        </mxCell>
        <mxCell id="uQAS-4vIIWoBUJb4hJAs-16" value="" style="outlineConnect=0;fontColor=#232F3E;gradientColor=none;fillColor=#3334B9;strokeColor=none;dashed=0;verticalLabelPosition=bottom;verticalAlign=top;align=center;html=1;fontSize=12;fontStyle=0;aspect=fixed;pointerEvents=1;shape=mxgraph.aws4.rds_mysql_instance;" vertex="1" parent="1">
          <mxGeometry x="524" y="429" width="52" height="52" as="geometry" />
        </mxCell>
        <mxCell id="uQAS-4vIIWoBUJb4hJAs-17" value="End User Clients" style="text;html=1;strokeColor=none;fillColor=none;align=center;verticalAlign=middle;whiteSpace=wrap;rounded=0;" vertex="1" parent="1">
          <mxGeometry x="75" y="160" width="110" height="20" as="geometry" />
        </mxCell>
        <mxCell id="uQAS-4vIIWoBUJb4hJAs-18" value="Client Interface (C)" style="text;html=1;strokeColor=none;fillColor=none;align=center;verticalAlign=middle;whiteSpace=wrap;rounded=0;" vertex="1" parent="1">
          <mxGeometry x="275" y="160" width="140" height="20" as="geometry" />
        </mxCell>
        <mxCell id="uQAS-4vIIWoBUJb4hJAs-19" value="Server OS (S)" style="text;html=1;strokeColor=none;fillColor=none;align=center;verticalAlign=middle;whiteSpace=wrap;rounded=0;" vertex="1" parent="1">
          <mxGeometry x="490" y="160" width="120" height="20" as="geometry" />
        </mxCell>
        <mxCell id="uQAS-4vIIWoBUJb4hJAs-20" value="Database Server (D)" style="text;html=1;strokeColor=none;fillColor=none;align=center;verticalAlign=middle;whiteSpace=wrap;rounded=0;" vertex="1" parent="1">
          <mxGeometry x="490" y="565" width="120" height="20" as="geometry" />
        </mxCell>
        <mxCell id="uQAS-4vIIWoBUJb4hJAs-21" value="Windows CLient (CW)" style="text;html=1;strokeColor=none;fillColor=none;align=center;verticalAlign=middle;whiteSpace=wrap;rounded=0;" vertex="1" parent="1">
          <mxGeometry x="320" y="210" width="90" height="20" as="geometry" />
        </mxCell>
        <mxCell id="uQAS-4vIIWoBUJb4hJAs-23" value="Java Client (CJ)" style="text;html=1;strokeColor=none;fillColor=none;align=center;verticalAlign=middle;whiteSpace=wrap;rounded=0;" vertex="1" parent="1">
          <mxGeometry x="321" y="248.91000000000003" width="90" height="20" as="geometry" />
        </mxCell>
        <mxCell id="uQAS-4vIIWoBUJb4hJAs-27" value="My SQL (DM)" style="text;html=1;strokeColor=none;fillColor=none;align=center;verticalAlign=middle;whiteSpace=wrap;rounded=0;" vertex="1" parent="1">
          <mxGeometry x="490" y="487.82" width="120" height="20" as="geometry" />
        </mxCell>
        <mxCell id="uQAS-4vIIWoBUJb4hJAs-28" value="Windows (SW)" style="text;html=1;strokeColor=none;fillColor=none;align=center;verticalAlign=middle;whiteSpace=wrap;rounded=0;" vertex="1" parent="1">
          <mxGeometry x="530" y="248.91" width="80" height="20" as="geometry" />
        </mxCell>
        <mxCell id="uQAS-4vIIWoBUJb4hJAs-29" value="Text" style="text;html=1;strokeColor=none;fillColor=none;align=center;verticalAlign=middle;whiteSpace=wrap;rounded=0;" vertex="1" parent="1">
          <mxGeometry x="140" y="370" width="40" height="20" as="geometry" />
        </mxCell>
        <mxCell id="uQAS-4vIIWoBUJb4hJAs-30" value="Browser-Client (CB)" style="text;html=1;strokeColor=none;fillColor=none;align=center;verticalAlign=middle;whiteSpace=wrap;rounded=0;" vertex="1" parent="1">
          <mxGeometry x="313.2" y="289.82" width="97.8" height="20" as="geometry" />
        </mxCell>
      </root>
    </mxGraphModel>
  </diagram>
</mxfile>
